<?xml version="1.0" standalone="no"?>
<!DOCTYPE svg PUBLIC "-//W3C//DTD SVG 20010904//EN"
 "http://www.w3.org/TR/2001/REC-SVG-20010904/DTD/svg10.dtd">
<svg version="1.0" xmlns="http://www.w3.org/2000/svg"
 width="500.000000pt" height="171.000000pt" viewBox="0 0 500.000000 171.000000"
 preserveAspectRatio="xMidYMid meet">

<g transform="translate(0.000000,171.000000) scale(0.100000,-0.100000)"
fill="#000000" stroke="none">
<path d="M3675 1353 c-67 -24 -111 -57 -141 -105 -90 -142 -64 -329 60 -427
50 -40 97 -54 181 -55 58 0 81 5 128 27 54 27 117 88 117 114 0 6 -9 15 -20
18 -16 5 -31 -3 -61 -33 -120 -121 -331 -79 -383 75 -36 104 -12 216 59 282
96 88 240 81 332 -16 28 -29 36 -32 53 -23 27 14 25 23 -12 65 -70 81 -209
115 -313 78z"/>
<path d="M4326 1355 c-89 -31 -131 -112 -101 -192 22 -56 51 -74 184 -115 147
-46 187 -90 150 -171 -24 -53 -127 -76 -213 -47 -36 11 -86 61 -86 84 0 14
-46 10 -56 -5 -7 -12 20 -60 48 -85 108 -99 316 -74 364 43 30 70 6 144 -57
182 -18 11 -68 29 -113 41 -164 45 -207 90 -159 171 46 78 223 68 261 -16 11
-25 36 -32 59 -17 10 6 8 16 -6 42 -44 83 -171 122 -275 85z"/>
<path d="M1640 1065 l0 -295 30 0 30 0 0 135 0 135 110 0 110 0 0 25 0 25
-110 0 -110 0 0 110 0 110 125 0 125 0 0 25 0 25 -155 0 -155 0 0 -295z"/>
<path d="M2170 1065 l0 -295 135 0 135 0 0 25 0 25 -110 0 -110 0 0 270 0 270
-25 0 -25 0 0 -295z"/>
<path d="M2618 1283 c27 -43 70 -112 95 -153 l47 -74 0 -143 0 -143 30 0 30 0
0 139 0 140 95 151 c52 83 95 153 95 156 0 2 -15 4 -32 4 -31 0 -37 -7 -108
-124 -41 -69 -77 -123 -81 -120 -4 2 -39 58 -79 124 -70 115 -74 120 -107 120
l-33 0 48 -77z"/>
<path d="M1650 512 c0 -15 42 -125 52 -136 13 -15 24 2 52 77 21 53 23 67 11
67 -8 0 -21 -22 -31 -55 -10 -30 -20 -52 -23 -49 -3 3 -13 26 -22 52 -14 41
-39 69 -39 44z"/>
<path d="M1871 494 c-12 -15 -21 -38 -21 -51 0 -32 42 -73 75 -73 35 0 75 42
75 78 0 65 -89 97 -129 46z m94 -18 c30 -46 -17 -102 -65 -76 -19 10 -25 27
-20 60 6 44 60 55 85 16z"/>
<path d="M2090 445 l0 -75 35 0 c39 0 48 17 13 22 -21 3 -23 9 -26 66 -4 88
-22 78 -22 -13z"/>
<path d="M2256 449 c-27 -73 -26 -103 1 -61 20 29 69 30 78 2 7 -22 25 -28 24
-7 -1 30 -47 132 -61 135 -11 2 -23 -18 -42 -69z m64 -11 c0 -5 -11 -8 -24 -8
-23 0 -24 2 -13 30 l11 30 13 -23 c7 -12 12 -25 13 -29z"/>
<path d="M2450 445 c0 -88 18 -102 22 -17 l3 57 35 -57 c48 -80 60 -76 60 17
0 85 -17 103 -22 23 l-3 -53 -34 53 c-48 74 -61 69 -61 -23z"/>
<path d="M2670 444 l0 -77 47 6 c54 6 73 25 73 74 0 46 -30 73 -80 73 l-40 0
0 -76z m86 31 c19 -28 11 -60 -17 -76 -34 -18 -49 -4 -49 44 0 24 3 47 7 50
14 15 43 6 59 -18z"/>
<path d="M2890 498 c-11 -12 -20 -35 -20 -50 0 -36 40 -78 75 -78 33 0 75 41
75 73 0 13 -9 36 -21 51 -27 34 -79 36 -109 4z m96 -26 c15 -30 7 -60 -18 -73
-47 -25 -93 32 -63 78 21 31 64 28 81 -5z"/>
<path d="M3220 445 l0 -75 35 0 c39 0 48 17 13 22 -21 3 -23 9 -26 66 -4 88
-22 78 -22 -13z"/>
<path d="M3370 445 l0 -75 40 0 c22 0 40 5 40 10 0 6 -11 10 -25 10 -20 0 -25
5 -25 25 0 20 5 25 25 25 14 0 25 5 25 10 0 6 -11 10 -25 10 -18 0 -25 5 -25
20 0 15 7 20 25 20 14 0 25 5 25 10 0 6 -18 10 -40 10 l-40 0 0 -75z"/>
<path d="M3578 458 c-2 -52 -6 -63 -20 -63 -26 0 -27 -19 -2 -23 37 -5 54 23
54 89 0 45 -3 59 -15 59 -10 0 -15 -16 -17 -62z"/>
<path d="M3719 501 c-17 -14 -23 -28 -22 -57 3 -99 143 -98 143 1 0 66 -69 98
-121 56z m86 -21 c23 -25 13 -67 -20 -82 -21 -9 -28 -8 -45 7 -25 22 -26 70
-2 84 26 16 47 13 67 -9z"/>
<path d="M3936 504 c-27 -27 -17 -45 36 -67 27 -11 36 -20 32 -31 -7 -19 -35
-21 -51 -5 -6 6 -17 9 -23 7 -21 -7 19 -38 49 -38 33 0 51 16 51 46 0 16 -10
26 -41 38 -23 9 -39 22 -36 29 5 15 47 22 47 8 0 -6 7 -11 15 -11 18 0 19 12
3 28 -17 17 -64 15 -82 -4z"/>
</g>
</svg>
